<svg width="22" height="22" viewBox="0 0 22 22" fill="none" xmlns="http://www.w3.org/2000/svg">
<path id="Vector - 0" fill-rule="evenodd" clip-rule="evenodd" d="M13.25 8H8.75C8.33579 8 8 8.33579 8 8.75V13.25C8 13.6642 8.33579 14 8.75 14H13.25C13.6642 14 14 13.6642 14 13.25V8.75C14 8.33579 13.6642 8 13.25 8ZM12.5 12.5H9.5V9.5H12.5V12.5ZM20.75 12.5H19.25V9.5H20.75C21.1642 9.5 21.5 9.16421 21.5 8.75C21.5 8.33579 21.1642 8 20.75 8H19.25V4.25C19.25 3.42157 18.5784 2.75 17.75 2.75H14V1.25C14 0.835786 13.6642 0.5 13.25 0.5C12.8358 0.5 12.5 0.835786 12.5 1.25V2.75H9.5V1.25C9.5 0.835786 9.16421 0.5 8.75 0.5C8.33579 0.5 8 0.835786 8 1.25V2.75H4.25C3.42157 2.75 2.75 3.42157 2.75 4.25V8H1.25C0.835786 8 0.5 8.33579 0.5 8.75C0.5 9.16421 0.835786 9.5 1.25 9.5H2.75V12.5H1.25C0.835786 12.5 0.5 12.8358 0.5 13.25C0.5 13.6642 0.835786 14 1.25 14H2.75V17.75C2.75 18.5784 3.42157 19.25 4.25 19.25H8V20.75C8 21.1642 8.33579 21.5 8.75 21.5C9.16421 21.5 9.5 21.1642 9.5 20.75V19.25H12.5V20.75C12.5 21.1642 12.8358 21.5 13.25 21.5C13.6642 21.5 14 21.1642 14 20.75V19.25H17.75C18.5784 19.25 19.25 18.5784 19.25 17.75V14H20.75C21.1642 14 21.5 13.6642 21.5 13.25C21.5 12.8358 21.1642 12.5 20.75 12.5ZM17.75 17.75H4.25V4.25H17.75V13.2378C17.75 13.2378 17.75 13.2463 17.75 13.25C17.75 13.2537 17.75 13.2584 17.75 13.2622V17.75Z" fill="#121417"/>
</svg>
