<svg width="23" height="19" viewBox="0 0 23 19" fill="none" xmlns="http://www.w3.org/2000/svg">
<path id="Vector - 0" fill-rule="evenodd" clip-rule="evenodd" d="M22.75 9.625C22.748 7.59744 21.5808 5.75154 19.75 4.88031V4.75C19.7482 2.76581 18.4471 1.01696 16.5471 0.445025C14.6471 -0.126909 12.5968 0.613073 11.5 2.26656C10.4032 0.613073 8.35286 -0.126909 6.45289 0.445025C4.55292 1.01696 3.25178 2.76581 3.25 4.75V4.88031C1.41746 5.74923 0.249297 7.59595 0.249297 9.62406C0.249297 11.6522 1.41746 13.4989 3.25 14.3678V14.5C3.25178 16.4842 4.55292 18.233 6.45289 18.805C8.35286 19.3769 10.4032 18.6369 11.5 16.9834C12.5968 18.6369 14.6471 19.3769 16.5471 18.805C18.4471 18.233 19.7482 16.4842 19.75 14.5V14.3678C21.5805 13.4972 22.7477 11.652 22.75 9.625ZM7.75 17.5C6.21813 17.4998 4.93249 16.3455 4.76781 14.8225C5.01035 14.8571 5.25501 14.8746 5.5 14.875H6.25C6.66421 14.875 7 14.5392 7 14.125C7 13.7108 6.66421 13.375 6.25 13.375H5.5C3.67185 13.3771 2.10857 12.0607 1.79957 10.2588C1.49057 8.45699 2.5259 6.69491 4.25031 6.08781C4.54977 5.98179 4.74995 5.69861 4.75 5.38094V4.75C4.75 3.09315 6.09315 1.75 7.75 1.75C9.40685 1.75 10.75 3.09315 10.75 4.75V11.1494C9.92642 10.4086 8.85768 9.99918 7.75 10C7.33579 10 7 10.3358 7 10.75C7 11.1642 7.33579 11.5 7.75 11.5C9.40685 11.5 10.75 12.8431 10.75 14.5C10.75 16.1569 9.40685 17.5 7.75 17.5ZM17.5 13.375H16.75C16.3358 13.375 16 13.7108 16 14.125C16 14.5392 16.3358 14.875 16.75 14.875H17.5C17.745 14.8746 17.9897 14.8571 18.2322 14.8225C18.0586 16.4281 16.645 17.6082 15.0342 17.4923C13.4234 17.3763 12.1934 16.006 12.2515 14.392C12.3096 12.7781 13.635 11.4998 15.25 11.5C15.6642 11.5 16 11.1642 16 10.75C16 10.3358 15.6642 10 15.25 10C14.1423 9.99918 13.0736 10.4086 12.25 11.1494V4.75C12.25 3.09315 13.5931 1.75 15.25 1.75C16.9069 1.75 18.25 3.09315 18.25 4.75V5.38094C18.2501 5.69861 18.4502 5.98179 18.7497 6.08781C20.4741 6.69491 21.5094 8.45699 21.2004 10.2588C20.8914 12.0607 19.3282 13.3771 17.5 13.375ZM19 8.5C19 8.91421 18.6642 9.25 18.25 9.25H17.875C16.011 9.25 14.5 7.73896 14.5 5.875V5.5C14.5 5.08579 14.8358 4.75 15.25 4.75C15.6642 4.75 16 5.08579 16 5.5V5.875C16 6.91053 16.8395 7.75 17.875 7.75H18.25C18.6642 7.75 19 8.08579 19 8.5ZM5.125 9.25H4.75C4.33579 9.25 4 8.91421 4 8.5C4 8.08579 4.33579 7.75 4.75 7.75H5.125C6.16053 7.75 7 6.91053 7 5.875V5.5C7 5.08579 7.33579 4.75 7.75 4.75C8.16421 4.75 8.5 5.08579 8.5 5.5V5.875C8.5 7.73896 6.98896 9.25 5.125 9.25Z" fill="#121417"/>
</svg>
